<svg width="18" height="22" viewBox="0 0 18 22" fill="none" xmlns="http://www.w3.org/2000/svg">
<path d="M8.82617 1C12.1878 1.00005 14.9131 3.72523 14.9131 7.08691V9.1779C14.9131 10.2784 15.6223 11.241 16.1858 12.1864C16.4821 12.6834 16.6523 13.2643 16.6523 13.8848C16.6523 15.4877 15.5067 16.8629 13.9189 17.083C12.3423 17.3016 10.3724 17.5215 8.82617 17.5215C7.27982 17.5215 5.30911 17.3016 3.73242 17.083C2.14498 16.8626 1 15.4875 1 13.8848C1.00007 13.2643 1.17023 12.6834 1.46645 12.1864C2.02992 11.241 2.73926 10.2784 2.73926 9.17779V7.08691C2.73928 3.7252 5.46445 1 8.82617 1Z" fill="white"/>
<path d="M11 19.834C10.5326 20.5369 9.73347 21.0002 8.82609 21.0002C7.91871 21.0002 7.11954 20.5369 6.65218 19.834M8.82617 1C12.1878 1.00005 14.9131 3.72523 14.9131 7.08691V9.1779C14.9131 10.2784 15.6223 11.241 16.1858 12.1864C16.4821 12.6834 16.6523 13.2643 16.6523 13.8848C16.6523 15.4877 15.5067 16.8628 13.9189 17.083C12.3423 17.3016 10.3724 17.5215 8.82617 17.5215C7.27982 17.5215 5.30911 17.3016 3.73242 17.083C2.14498 16.8626 1 15.4875 1 13.8848C1.00007 13.2643 1.17023 12.6834 1.46645 12.1864C2.02992 11.241 2.73926 10.2784 2.73926 9.17779V7.08691C2.73928 3.7252 5.46445 1 8.82617 1Z" stroke="white" stroke-width="1.5" stroke-linecap="round"/>
</svg>
