<svg width="25" height="26" viewBox="0 0 25 26" fill="none" xmlns="http://www.w3.org/2000/svg">
<path d="M15.2 22H4.4V6.7C4.4 4.4662 4.8662 4 7.1 4H12.5C14.7338 4 15.2 4.4662 15.2 6.7V22ZM15.2 22V9.4H17.9C20.1338 9.4 20.6 9.8662 20.6 12.1V22H15.2ZM8.9 7.6H10.7M8.9 10.3H10.7M8.9 13H10.7M12.05 22V18.4C12.05 17.5513 12.05 17.1274 11.7863 16.8637C11.5226 16.6 11.0987 16.6 10.25 16.6H9.35C8.5013 16.6 8.0774 16.6 7.8137 16.8637C7.55 17.1274 7.55 17.5513 7.55 18.4V22" stroke="#ADB5BD" stroke-width="1.5" stroke-linecap="round" stroke-linejoin="round"/>
</svg>
