<svg width="25" height="26" viewBox="0 0 25 26" fill="none" xmlns="http://www.w3.org/2000/svg">
<path d="M19.3593 15.8412C20.5085 13.0669 19.8733 9.87348 17.7499 7.7501C16.3576 6.35764 14.4691 5.57536 12.5 5.57536M19.3593 15.8412C18.2102 18.6156 15.5029 20.4245 12.5 20.4245M19.3593 15.8412L20.8149 16.4441M12.5 20.4245C9.49708 20.4245 6.78985 18.6156 5.64068 15.8412M12.5 20.4245L12.5 22M5.64068 15.8412C4.49151 13.0669 5.12672 9.87348 7.25011 7.7501C8.64242 6.35764 10.5309 5.57536 12.5 5.57536M5.64068 15.8412L4.18511 16.4441M12.5 5.57536L12.5 4M21.5 13H19.9246M5.07539 13H3.5M20.8149 9.55586L19.3589 10.1589M9.05583 4.68505L9.65892 6.14101M15.9442 21.3149L15.3411 19.859M4.18511 9.55586L5.64105 10.1589M9.05583 21.3149L9.65892 19.859M15.9442 4.68505L15.3411 6.14101M18.864 19.364L14.3182 14.8182M10.6818 11.1818L6.13604 6.63604M10.6818 11.1818C9.94634 11.9172 9.72635 13.0232 10.1243 13.984C10.5224 14.9449 11.46 15.5714 12.5 15.5714C13.54 15.5714 14.4776 14.9449 14.8756 13.984C15.2736 13.0232 15.0536 11.9172 14.3182 11.1818M10.6818 11.1818C11.164 10.6995 11.818 10.4286 12.5 10.4286C13.182 10.4286 13.836 10.6995 14.3182 11.1818M18.864 6.63604L14.3182 11.1818M10.6818 14.8182L6.13604 19.364" stroke="#ADB5BD" stroke-width="1.5" stroke-linecap="round" stroke-linejoin="round"/>
</svg>
