<svg width="21" height="22" viewBox="0 0 21 22" fill="none" xmlns="http://www.w3.org/2000/svg">
<path d="M13.1471 17.3529H16.3236M13.1471 14.1765H16.3236M14.2058 3.58832H16.3234C17.493 3.58832 18.441 4.53641 18.441 5.70594V7.82357M5.73526 3.58832H3.61763C2.44809 3.58832 1.5 4.53641 1.5 5.70594V18.4117C1.5 19.5812 2.44809 20.5293 3.61763 20.5293H6.79407M7.54991 5.70596H12.3917C13.3938 5.70596 14.2061 4.89364 14.2061 3.8916V3.28506C14.2061 2.28302 13.3938 1.4707 12.3917 1.4707H7.54991C6.54787 1.4707 5.73556 2.28302 5.73556 3.28506V3.8916C5.73556 4.89364 6.54787 5.70596 7.54991 5.70596ZM11.785 20.5294H17.6856C18.6877 20.5294 19.5 19.7171 19.5 18.715V12.8144C19.5 11.8124 18.6877 11 17.6856 11H11.785C10.783 11 9.97067 11.8124 9.97067 12.8144V18.715C9.97067 19.7171 10.783 20.5294 11.785 20.5294Z" stroke="#ADB5BD" stroke-width="1.5" stroke-linecap="round" stroke-linejoin="round"/>
</svg>
