<svg width="16" height="16" viewBox="0 0 16 16" fill="none" xmlns="http://www.w3.org/2000/svg">
<path d="M3.85187 9.60033C3.29965 9.60033 3.02353 9.60033 2.80573 9.51913C2.51533 9.41087 2.2846 9.20322 2.16431 8.94185C2.0741 8.74583 2.0741 8.49733 2.0741 8.00033V4.37366C2.0741 3.77627 2.0741 3.47757 2.20327 3.2494C2.3169 3.0487 2.49821 2.88552 2.72122 2.78325C2.97474 2.66699 3.30663 2.66699 3.97039 2.66699H8.00002C8.55225 2.66699 8.82836 2.66699 9.04617 2.74819C9.33657 2.85645 9.5673 3.0641 9.68758 3.32546C9.7778 3.52149 9.7778 3.76999 9.7778 4.26699M8.11854 13.3337H12.0297C12.6934 13.3337 13.0253 13.3337 13.2788 13.2174C13.5018 13.1151 13.6831 12.952 13.7968 12.7512C13.9259 12.5231 13.9259 12.2244 13.9259 11.627V8.10699C13.9259 7.5096 13.9259 7.21091 13.7968 6.98274C13.6831 6.78203 13.5018 6.61885 13.2788 6.51659C13.0253 6.40033 12.6934 6.40033 12.0297 6.40033H8.11854C7.45478 6.40033 7.12289 6.40033 6.86937 6.51659C6.64636 6.61885 6.46505 6.78203 6.35142 6.98274C6.22225 7.21091 6.22225 7.5096 6.22225 8.10699V11.627C6.22225 12.2244 6.22225 12.5231 6.35142 12.7512C6.46505 12.952 6.64636 13.1151 6.86937 13.2174C7.12289 13.3337 7.45478 13.3337 8.11854 13.3337Z" stroke="#6C757D" stroke-width="1.5" stroke-linecap="round" stroke-linejoin="round"/>
</svg>
