<svg width="151" height="53" viewBox="0 0 151 53" fill="none" xmlns="http://www.w3.org/2000/svg">
<path d="M39.2656 3.40648C40.7822 3.40648 42.0835 3.73258 43.1631 4.38796C44.2427 5.04334 45.0912 5.87602 45.7054 6.88283C46.3197 7.89281 46.6869 8.99777 46.8136 10.204C46.937 11.4103 46.8072 12.5691 46.4241 13.6804C46.0379 14.7917 45.3857 15.7795 44.458 16.6438C43.5335 17.5082 42.3304 18.0939 40.855 18.4073L48.232 26.3004C47.6716 26.6328 47.1397 26.8196 46.6426 26.8608C46.1424 26.9019 45.6643 26.8386 45.2084 26.674C44.7493 26.5062 44.325 26.2624 43.9293 25.9426C43.5335 25.6197 43.1504 25.2524 42.7737 24.8345C41.1716 23.1501 39.5918 21.4563 38.034 19.7498C36.4732 18.0464 38.4741 20.2563 36.8943 18.5308H26.975V26.8259L23.9482 26.8513V9.08325H26.975V15.5389H39.2625C40.282 15.5389 41.1273 15.3141 41.8048 14.8677C42.4792 14.4213 42.989 13.8545 43.3341 13.1675C43.676 12.4805 43.8501 11.7491 43.8501 10.9671C43.8501 10.185 43.6792 9.45369 43.3341 8.76981C42.989 8.08594 42.4824 7.51605 41.8048 7.06963C41.1273 6.62321 40.282 6.39842 39.2625 6.39842C37.4547 6.39842 35.6437 6.40792 33.8358 6.43008C32.028 6.45224 30.2265 6.43958 28.4409 6.39842C27.8995 6.39842 27.3739 6.36359 26.8673 6.29077C26.3576 6.21795 25.8953 6.07548 25.4806 5.85702C25.0658 5.64173 24.7017 5.33779 24.3883 4.94519C24.078 4.5526 23.8469 4.03969 23.7012 3.40015C26.3006 3.44131 28.8904 3.4508 31.4676 3.43181C34.0448 3.40964 36.6441 3.40015 39.2656 3.40015V3.40648Z" fill="white"/>
<path d="M84.6481 6.40147V26.867C84.0244 26.7214 83.5147 26.4934 83.1189 26.18C82.7231 25.8665 82.416 25.4929 82.1976 25.056C81.9791 24.6191 81.8335 24.1283 81.7606 23.5869C81.6878 23.0455 81.6403 22.463 81.6213 21.8393V6.40147L76.0997 6.46479C75.5583 6.44263 75.0327 6.39197 74.5262 6.30966C74.0164 6.22734 73.5479 6.07853 73.1236 5.86007C72.6962 5.64478 72.3289 5.34084 72.0155 4.94824C71.702 4.55565 71.4867 4.04275 71.3601 3.4032H94.9695V6.39831H84.6449L84.6481 6.40147Z" fill="white"/>
<path d="M116.366 6.40136H101.612C101.112 6.38236 100.63 6.32537 100.162 6.23039C99.6932 6.13857 99.2658 5.9771 98.8827 5.75231C98.4965 5.52752 98.1704 5.22674 97.9013 4.85631C97.6321 4.48588 97.4327 4.00147 97.3092 3.40625C98.1609 3.40625 99.155 3.41258 100.288 3.42208C101.422 3.43158 102.622 3.43791 103.891 3.43791H107.805C109.147 3.43791 110.452 3.43158 111.718 3.42208C112.984 3.41258 114.188 3.40625 115.321 3.40625H116.907L116.366 6.40136Z" fill="white"/>
<path d="M118.145 12.8887L116.024 15.8806H100.336V23.7736H118.145L116.024 26.8289H97.3092V12.8887H118.145Z" fill="white"/>
<path d="M20.8359 12.8063L18.7147 15.8014H3.02676V23.6912H20.8359L18.7147 26.7465H0V12.8063H20.8359Z" fill="white"/>
<path d="M3.02676 13.7719V6.32214H17.6857C18.3316 6.32214 18.9363 6.0087 19.3099 5.48313L20.8359 3.3302H0V13.7719H3.02676Z" fill="white"/>
<path d="M120.241 4.7423L114.789 1.25012V8.23449L120.241 4.7423Z" fill="white"/>
<path d="M73.4339 18.9709C71.8445 15.0829 70.2488 11.1633 68.6468 7.21206C68.0231 5.9013 67.1904 4.91982 66.1519 4.26444C65.1103 3.60906 64.0243 3.28296 62.894 3.28296C61.7637 3.28296 60.6746 3.60906 59.6361 4.26444C58.5945 4.91982 57.765 5.9013 57.1413 7.21206L49.3116 26.8006H52.5568L55.0517 20.5001H55.0897L56.2928 17.505H56.2643L59.9148 8.36768C60.2694 7.7028 60.7158 7.20256 61.2572 6.87012C61.7986 6.53769 62.3526 6.36988 62.9257 6.36988C63.4988 6.36988 64.0465 6.53769 64.5784 6.87012C65.1071 7.20256 65.5504 7.7028 65.905 8.36768C66.4464 9.78291 67.0289 11.2583 67.6526 12.797C68.2764 14.3357 68.9096 15.9061 69.5555 17.5081H69.5333L70.7681 20.5032L72.0028 23.5015C72.2118 24.0208 72.4397 24.5083 72.6899 24.9674C72.94 25.4233 73.2471 25.8159 73.6112 26.1357C73.9753 26.4586 74.3964 26.6866 74.8745 26.8227C75.3525 26.9589 75.9224 26.9747 76.5905 26.8702C75.0296 22.919 75.0296 22.8651 73.4371 18.9772L73.4339 18.9709Z" fill="white"/>
<path d="M133.108 3.34594C126.022 3.34594 121.074 8.17737 121.074 15.0984C121.074 21.6174 125.563 26.414 131.243 26.7179C134.853 26.9142 134.818 26.6673 137.097 25.7681L138.117 25.0779L139.127 26.6673C142.153 24.5492 145.107 20.9715 145.107 15.0952C145.107 7.95575 140.396 3.34277 133.108 3.34277V3.34594ZM133.108 24.0869C127.846 24.0869 124.579 20.6422 124.579 15.0952C124.579 9.54828 127.846 6.14159 133.108 6.14159C138.37 6.14159 141.603 9.57361 141.603 15.0952C141.603 20.6169 138.348 24.0869 133.108 24.0869Z" fill="white"/>
<path d="M149.575 31.6731V28.8996C144.246 28.2221 141.15 28.0701 138.015 28.3202L132.915 28.7255L133.254 28.5419C130.968 29.0484 128.669 29.2732 126.744 29.4569L126.985 31.8599C134.59 30.812 140.498 30.5175 149.575 31.6763V31.6731Z" fill="white"/>
<path d="M126.744 29.4536C126.744 29.4536 134.558 28.9344 138.595 25.5593L139.127 26.6675C139.127 26.6675 136.398 28.6557 133.361 28.9755L127.248 29.8747L126.744 29.4536Z" fill="white"/>
<path d="M130.344 26.6171C130.344 26.6171 135.388 27.7442 138.383 24.9739L133.399 24.92L129.803 25.2208L130.341 26.6202L130.344 26.6171Z" fill="white"/>
<path d="M146.271 48.9693C143.537 48.9693 141.828 47.0894 141.828 44.0724V44.0592C141.828 41.0487 143.544 39.1688 146.271 39.1688C149.006 39.1688 150.715 41.0553 150.715 44.0592V44.0724C150.715 45.8603 150.117 47.2538 149.052 48.0885L150.301 49.8173H148.769L147.961 48.6933C147.455 48.8773 146.889 48.9693 146.271 48.9693ZM146.271 47.6679C146.58 47.6679 146.87 47.6284 147.139 47.5495L145.956 45.9063H147.481L148.21 46.9185C148.848 46.2941 149.203 45.3081 149.203 44.0724V44.0592C149.203 41.8572 148.072 40.4703 146.271 40.4703C144.477 40.4703 143.333 41.8507 143.333 44.0592V44.0724C143.333 46.2809 144.47 47.6679 146.271 47.6679Z" fill="white"/>
<path d="M134.637 48.8113V39.3263H140.658V40.5949H136.109V43.3622H140.415V44.5979H136.109V47.5427H140.658V48.8113H134.637Z" fill="white"/>
<path d="M129.063 48.8113V40.5949H126.158V39.3263H133.434V40.5949H130.535V48.8113H129.063Z" fill="white"/>
<path d="M118.474 48.8113L121.925 39.3263H123.515L126.96 48.8113H125.415L124.547 46.2478H120.893L120.018 48.8113H118.474ZM122.707 40.8973L121.287 45.0646H124.146L122.733 40.8973H122.707Z" fill="white"/>
<path d="M110.908 48.8113V39.3263H114.589C116.528 39.3263 117.751 40.4503 117.751 42.2316V42.2448C117.751 43.5331 117.047 44.5585 115.91 44.9463L118.033 48.8113H116.337L114.405 45.1698H112.38V48.8113H110.908ZM112.38 43.9603H114.444C115.582 43.9603 116.232 43.3359 116.232 42.2579V42.2448C116.232 41.1931 115.536 40.562 114.405 40.562H112.38V43.9603Z" fill="white"/>
<path d="M103.375 48.8113V39.3263H109.396V40.5949H104.848V43.3622H109.153V44.5979H104.848V47.5427H109.396V48.8113H103.375Z" fill="white"/>
<path d="M93.1344 48.8114V41.8965H94.5542V42.9416H94.587C94.9486 42.2383 95.6585 41.765 96.7036 41.765C98.222 41.765 99.0962 42.7444 99.0962 44.3351V48.8114H97.6698V44.6046C97.6698 43.566 97.1834 42.981 96.1975 42.981C95.1983 42.981 94.5542 43.7041 94.5542 44.7821V48.8114H93.1344Z" fill="white"/>
<path d="M90.2159 38.9321L88.7435 37.0391H90.0647L91.123 38.9321H90.2159ZM86.6073 41.1341L88.1322 39.1359H89.3943L90.9192 41.1341H89.7887L88.7567 39.7866L87.7444 41.1341H86.6073ZM88.1848 48.9364C86.8045 48.9364 85.8777 48.0885 85.8777 46.8462V46.833C85.8777 45.6301 86.8111 44.8939 88.4478 44.7953L90.3277 44.6836V44.1643C90.3277 43.4018 89.8347 42.9417 88.9539 42.9417C88.1322 42.9417 87.6261 43.3295 87.5078 43.8817L87.4947 43.9408H86.1537L86.1603 43.8685C86.2589 42.6788 87.2909 41.7651 88.9933 41.7651C90.6826 41.7651 91.754 42.6591 91.754 44.046V48.8115H90.3277V47.7204H90.3014C89.9004 48.4631 89.0985 48.9364 88.1848 48.9364ZM87.3106 46.8133C87.3106 47.418 87.8102 47.7993 88.5726 47.7993C89.5718 47.7993 90.3277 47.1222 90.3277 46.2217V45.6827L88.6384 45.7879C87.7839 45.8405 87.3106 46.2151 87.3106 46.8001V46.8133Z" fill="white"/>
<path d="M78.7261 48.8113V39.3263H80.1459V43.0335H80.1788C80.5469 42.2316 81.2896 41.7649 82.3216 41.7649C83.8006 41.7649 84.7734 42.8692 84.7734 44.5388V48.8113H83.3536V44.8083C83.3536 43.6646 82.7752 42.9809 81.776 42.9809C80.7966 42.9809 80.1459 43.7303 80.1459 44.8083V48.8113H78.7261Z" fill="white"/>
<path d="M70.8778 48.8113V39.3263H74.4076C76.2678 39.3263 77.5561 40.5752 77.5561 42.4354V42.4485C77.5561 44.3021 76.2678 45.5708 74.4076 45.5708H72.3502V48.8113H70.8778ZM74.0395 40.5686H72.3502V44.335H74.0395C75.3213 44.335 76.0574 43.6448 76.0574 42.4551V42.442C76.0574 41.2588 75.3213 40.5686 74.0395 40.5686Z" fill="white"/>
<path d="M64.7123 38.9519V38.9257C65.0606 38.6693 65.2513 38.4195 65.2513 38.196C65.2513 37.9331 64.9357 37.7688 64.5216 37.7688C64.3179 37.7688 64.1864 37.7885 64.1075 37.8082V37.0655C64.2719 36.9997 64.5479 36.9471 64.8569 36.9471C65.5865 36.9471 66.1978 37.3415 66.1978 37.966C66.1978 38.3472 66.0137 38.6824 65.5931 38.9519H64.7123ZM61.4389 41.1342L62.9638 39.136H64.2258L65.7574 41.1342H64.6202L63.5883 39.7867L62.576 41.1342H61.4389ZM63.5948 48.9497C61.6098 48.9497 60.3148 47.5759 60.3148 45.3542V45.341C60.3148 43.1324 61.6229 41.7652 63.5883 41.7652C65.5602 41.7652 66.8748 43.1259 66.8748 45.341V45.3542C66.8748 47.5824 65.5733 48.9497 63.5948 48.9497ZM63.6014 47.7599C64.7123 47.7599 65.4222 46.8791 65.4222 45.3542V45.341C65.4222 43.8292 64.6991 42.955 63.5883 42.955C62.4971 42.955 61.7675 43.8292 61.7675 45.341V45.3542C61.7675 46.8857 62.4905 47.7599 63.6014 47.7599Z" fill="white"/>
<path d="M55.4902 48.9693C52.8018 48.9693 51.0928 47.0763 51.0928 44.0658V44.0592C51.0928 41.0487 52.8018 39.1688 55.4902 39.1688C57.5804 39.1688 59.1514 40.4572 59.4472 42.3305L59.4603 42.3897H58.0011L57.9617 42.2582C57.6462 41.1473 56.7654 40.4703 55.4902 40.4703C53.7286 40.4703 52.598 41.8638 52.598 44.0592V44.0658C52.598 46.2612 53.7352 47.6679 55.4902 47.6679C56.7522 47.6679 57.6264 47.0106 57.9814 45.8077L58.0011 45.7485H59.4603L59.4538 45.8142C59.158 47.7007 57.587 48.9693 55.4902 48.9693Z" fill="white"/>
<path d="M42.5346 51.1186C42.2585 51.1186 41.9627 51.0857 41.7918 51.0528V49.942C41.9036 49.9683 42.0679 49.9946 42.2585 49.9946C42.929 49.9946 43.2971 49.8171 43.5337 49.1466L43.652 48.818L41.1345 41.8965H42.6726L44.4145 47.5231H44.4605L46.2024 41.8965H47.701L45.1244 49.1335C44.6117 50.5664 43.8886 51.1186 42.5346 51.1186Z" fill="white"/>
<path d="M37.6179 48.8113V40.5949H34.7126V39.3263H41.989V40.5949H39.0903V48.8113H37.6179Z" fill="white"/>
<path d="M27.778 51.25C26.0032 51.25 24.8792 50.4284 24.6689 49.3701L24.6623 49.311H26.069L26.0952 49.3635C26.2859 49.8039 26.884 50.1063 27.7714 50.1063C28.902 50.1063 29.5264 49.5016 29.5264 48.5353V47.5888H29.4935C29.0992 48.3381 28.3104 48.818 27.3178 48.818C25.5825 48.818 24.4388 47.4573 24.4388 45.3014V45.2948C24.4388 43.1257 25.5957 41.765 27.3507 41.765C28.3235 41.765 29.086 42.2909 29.4935 43.0731H29.5264V41.8965H30.9528V48.6208C30.9528 50.1983 29.7302 51.25 27.778 51.25ZM27.7188 47.6611C28.8034 47.6611 29.5264 46.7474 29.5264 45.3211V45.3145C29.5264 43.8947 28.7968 42.981 27.7188 42.981C26.5948 42.981 25.8915 43.8881 25.8915 45.3145V45.3211C25.8915 46.7672 26.5948 47.6611 27.7188 47.6611Z" fill="white"/>
<path d="M17.4122 48.8114V41.8965H18.832V42.9416H18.8648C19.2263 42.2383 19.9362 41.765 20.9814 41.765C22.4998 41.765 23.374 42.7444 23.374 44.3351V48.8114H21.9476V44.6046C21.9476 43.566 21.4612 42.981 20.4752 42.981C19.4761 42.981 18.832 43.7041 18.832 44.7821V48.8114H17.4122Z" fill="white"/>
<path d="M10.9048 41.1142L12.4035 39.0437H13.6655L15.1707 41.1142H14.0402L13.0279 39.747L12.0354 41.1142H10.9048ZM13.0345 48.9494C11.0494 48.9494 9.75449 47.5756 9.75449 45.3539V45.3407C9.75449 43.1322 11.0625 41.765 13.0279 41.765C14.9998 41.765 16.3145 43.1256 16.3145 45.3407V45.3539C16.3145 47.5822 15.013 48.9494 13.0345 48.9494ZM13.041 47.7597C14.1519 47.7597 14.8618 46.8789 14.8618 45.3539V45.3407C14.8618 43.8289 14.1388 42.9547 13.0279 42.9547C11.9368 42.9547 11.2072 43.8289 11.2072 45.3407V45.3539C11.2072 46.8854 11.9302 47.7597 13.041 47.7597Z" fill="white"/>
<path d="M4.92983 48.9693C2.24143 48.9693 0.532421 47.0763 0.532421 44.0658V44.0592C0.532421 41.0487 2.24143 39.1688 4.92983 39.1688C7.02008 39.1688 8.59105 40.4572 8.88684 42.3305L8.89999 42.3897H7.44076L7.40132 42.2582C7.08581 41.1473 6.20501 40.4703 4.92983 40.4703C3.16824 40.4703 2.03766 41.8638 2.03766 44.0592V44.0658C2.03766 46.2612 3.17481 47.6679 4.92983 47.6679C6.19187 47.6679 7.06609 47.0106 7.42104 45.8077L7.44076 45.7485H8.89999L8.89342 45.8142C8.59763 47.7007 7.02665 48.9693 4.92983 48.9693Z" fill="white"/>
</svg>
