<svg width="181" height="60" viewBox="0 0 181 60" fill="none" xmlns="http://www.w3.org/2000/svg">
<path d="M47.1188 2.58743C48.9387 2.58743 50.5002 2.97876 51.7957 3.76521C53.0913 4.55166 54.1095 5.55088 54.8466 6.75905C55.5836 7.97102 56.0244 9.29697 56.1763 10.7445C56.3245 12.192 56.1687 13.5826 55.709 14.9161C55.2455 16.2497 54.4628 17.435 53.3497 18.4723C52.2403 19.5095 50.7965 20.2123 49.0261 20.5885L57.8784 30.0601C57.2059 30.459 56.5677 30.6832 55.9712 30.7326C55.3709 30.7819 54.7972 30.706 54.2501 30.5084C53.6992 30.307 53.1901 30.0145 52.7152 29.6308C52.2403 29.2432 51.7806 28.8025 51.3284 28.301C49.406 26.2798 47.5101 24.2472 45.6409 22.1994C43.7678 20.1553 46.169 22.8072 44.2732 20.7366H32.37V30.6908L28.7379 30.7212V9.39955H32.37V17.1463H47.115C48.3384 17.1463 49.3528 16.8766 50.1658 16.3409C50.9751 15.8052 51.5868 15.1251 52.0009 14.3006C52.4112 13.4762 52.6202 12.5986 52.6202 11.6601C52.6202 10.7217 52.415 9.84407 52.0009 9.02342C51.5868 8.20278 50.9789 7.51891 50.1658 6.98321C49.3528 6.44751 48.3384 6.17776 47.115 6.17776C44.9456 6.17776 42.7724 6.18916 40.603 6.21575C38.4337 6.24235 36.2719 6.22715 34.1291 6.17776C33.4794 6.17776 32.8487 6.13597 32.2408 6.04858C31.6291 5.9612 31.0744 5.79023 30.5767 5.52808C30.079 5.26973 29.6421 4.905 29.266 4.43389C28.8936 3.96277 28.6163 3.34729 28.4415 2.57983C31.5607 2.62922 34.6686 2.64062 37.7612 2.61783C40.8538 2.59123 43.973 2.57983 47.1188 2.57983V2.58743Z" fill="#3FA34B"/>
<path d="M101.578 6.18142V30.74C100.829 30.5652 100.218 30.2917 99.7426 29.9156C99.2677 29.5394 98.8992 29.0911 98.637 28.5668C98.3749 28.0425 98.2001 27.4536 98.1127 26.804C98.0254 26.1543 97.9684 25.4552 97.9456 24.7067V6.18142L91.3196 6.25741C90.6699 6.23081 90.0393 6.17002 89.4314 6.07124C88.8197 5.97246 88.2574 5.79389 87.7483 5.53174C87.2354 5.27339 86.7947 4.90866 86.4185 4.43755C86.0424 3.96644 85.7841 3.35095 85.6321 2.5835H113.963V6.17762H101.574L101.578 6.18142Z" fill="#3FA34B"/>
<path d="M139.639 6.18153H121.934C121.334 6.15873 120.757 6.09034 120.194 5.97637C119.632 5.86619 119.119 5.67242 118.659 5.40267C118.196 5.13292 117.805 4.77199 117.482 4.32748C117.159 3.88296 116.919 3.30167 116.771 2.5874C117.793 2.5874 118.986 2.595 120.346 2.6064C121.706 2.6178 123.146 2.6254 124.67 2.6254H129.366C130.977 2.6254 132.542 2.6178 134.062 2.6064C135.581 2.595 137.025 2.5874 138.385 2.5874H140.289L139.639 6.18153Z" fill="#3FA34B"/>
<path d="M141.774 13.9661L139.229 17.5564H120.403V27.028H141.774L139.229 30.6943H116.771V13.9661H141.774Z" fill="#3FA34B"/>
<path d="M25.0031 13.8674L22.4576 17.4616H3.63212V26.9294H25.0031L22.4576 30.5957H0V13.8674H25.0031Z" fill="#3FA34B"/>
<path d="M3.63212 15.0261V6.08642H21.2228C21.9979 6.08642 22.7235 5.71029 23.1718 5.07961L25.0031 2.49609H0V15.0261H3.63212Z" fill="#3FA34B"/>
<path d="M144.289 4.19061L137.747 0V8.38123L144.289 4.19061Z" fill="#3FA34B"/>
<path d="M88.1207 21.2647C86.2135 16.5992 84.2986 11.8956 82.3762 7.15412C81.6277 5.58122 80.6285 4.40344 79.3824 3.61699C78.1324 2.83054 76.8292 2.43921 75.4729 2.43921C74.1165 2.43921 72.8096 2.83054 71.5634 3.61699C70.3135 4.40344 69.318 5.58122 68.5696 7.15412L59.174 30.6603H63.0682L66.0621 23.0997H66.1076L67.5514 19.5056H67.5172L71.8978 8.54086C72.3233 7.74301 72.859 7.14273 73.5087 6.7438C74.1583 6.34488 74.8232 6.14351 75.5109 6.14351C76.1986 6.14351 76.8558 6.34488 77.4941 6.7438C78.1286 7.14273 78.6605 7.74301 79.086 8.54086C79.7357 10.2391 80.4348 12.0096 81.1832 13.8561C81.9317 15.7025 82.6915 17.587 83.4666 19.5094H83.44L84.9217 23.1035L86.4034 26.7015C86.6542 27.3245 86.9277 27.9096 87.2279 28.4605C87.528 29.0076 87.8966 29.4787 88.3335 29.8625C88.7704 30.25 89.2757 30.5235 89.8494 30.6869C90.4231 30.8503 91.107 30.8693 91.9086 30.7439C90.0356 26.0024 90.0356 25.9378 88.1245 21.2723L88.1207 21.2647Z" fill="#3FA34B"/>
<path d="M159.73 2.51503C151.227 2.51503 145.289 8.31274 145.289 16.618C145.289 24.4407 150.676 30.1966 157.492 30.5614C161.823 30.7969 161.781 30.5006 164.517 29.4216L165.74 28.5933L166.952 30.5006C170.584 27.9589 174.129 23.6657 174.129 16.6142C174.129 8.04679 168.476 2.51123 159.73 2.51123V2.51503ZM159.73 27.4042C153.415 27.4042 149.494 23.2705 149.494 16.6142C149.494 9.95783 153.415 5.8698 159.73 5.8698C166.044 5.8698 169.923 9.98823 169.923 16.6142C169.923 23.2401 166.017 27.4042 159.73 27.4042Z" fill="#3FA34B"/>
<path d="M179.49 36.5072V33.179C173.095 32.366 169.38 32.1836 165.618 32.4838L159.498 32.9701L159.904 32.7497C157.161 33.3576 154.403 33.6273 152.093 33.8477L152.382 36.7314C161.508 35.4738 168.597 35.1205 179.49 36.511V36.5072Z" fill="#3FA34B"/>
<path d="M152.093 33.844C152.093 33.844 161.47 33.2209 166.314 29.1709L166.952 30.5006C166.952 30.5006 163.677 32.8866 160.034 33.2703L152.697 34.3493L152.093 33.844Z" fill="#3FA34B"/>
<path d="M156.413 30.4397C156.413 30.4397 162.465 31.7923 166.059 28.4679L160.079 28.4033L155.763 28.7643L156.409 30.4435L156.413 30.4397Z" fill="#3FA34B"/>
<path d="M175.526 57.2628C172.244 57.2628 170.194 55.0069 170.194 51.3864V51.3707C170.194 47.7581 172.252 45.5022 175.526 45.5022C178.807 45.5022 180.858 47.766 180.858 51.3707V51.3864C180.858 53.5319 180.14 55.2041 178.862 56.2058L180.361 58.2803H178.523L177.553 56.9315C176.946 57.1524 176.267 57.2628 175.526 57.2628ZM175.526 55.701C175.896 55.701 176.243 55.6537 176.567 55.5591L175.147 53.5871H176.977L177.853 54.8018C178.618 54.0525 179.044 52.8693 179.044 51.3864V51.3707C179.044 48.7283 177.687 47.064 175.526 47.064C173.372 47.064 172 48.7204 172 51.3707V51.3864C172 54.0367 173.364 55.701 175.526 55.701Z" fill="#3FA34B"/>
<path d="M161.564 57.0736V45.6917H168.79V47.214H163.331V50.5347H168.498V52.0176H163.331V55.5513H168.79V57.0736H161.564Z" fill="#3FA34B"/>
<path d="M154.876 57.0736V47.214H151.389V45.6917H160.121V47.214H156.642V57.0736H154.876Z" fill="#3FA34B"/>
<path d="M142.168 57.0736L146.31 45.6917H148.218L152.352 57.0736H150.498L149.457 53.9974H145.071L144.022 57.0736H142.168ZM147.248 47.5768L145.544 52.5776H148.976L147.28 47.5768H147.248Z" fill="#3FA34B"/>
<path d="M133.09 57.0736V45.6917H137.507C139.834 45.6917 141.301 47.0405 141.301 49.178V49.1938C141.301 50.7398 140.457 51.9703 139.092 52.4357L141.64 57.0736H139.605L137.286 52.7038H134.857V57.0736H133.09ZM134.857 51.2525H137.333C138.698 51.2525 139.479 50.5032 139.479 49.2096V49.1938C139.479 47.9318 138.643 47.1745 137.286 47.1745H134.857V51.2525Z" fill="#3FA34B"/>
<path d="M124.05 57.0736V45.6917H131.275V47.214H125.817V50.5347H130.984V52.0176H125.817V55.5513H131.275V57.0736H124.05Z" fill="#3FA34B"/>
<path d="M111.761 57.0736V48.7757H113.465V50.0298H113.504C113.938 49.1858 114.79 48.6179 116.044 48.6179C117.866 48.6179 118.915 49.7932 118.915 51.702V57.0736H117.204V52.0254C117.204 50.7792 116.62 50.0772 115.437 50.0772C114.238 50.0772 113.465 50.9448 113.465 52.2384V57.0736H111.761Z" fill="#3FA34B"/>
<path d="M108.259 45.2182L106.492 42.9465H108.078L109.348 45.2182H108.259ZM103.929 47.8606L105.759 45.4627H107.273L109.103 47.8606H107.746L106.508 46.2436L105.293 47.8606H103.929ZM105.822 57.2233C104.165 57.2233 103.053 56.2058 103.053 54.715V54.6993C103.053 53.2558 104.173 52.3724 106.137 52.2541L108.393 52.12V51.4968C108.393 50.5819 107.802 50.0297 106.745 50.0297C105.759 50.0297 105.151 50.4951 105.009 51.1577L104.994 51.2287H103.385L103.392 51.1419C103.511 49.7142 104.749 48.6178 106.792 48.6178C108.819 48.6178 110.105 49.6905 110.105 51.3549V57.0735H108.393V55.7641H108.362C107.881 56.6554 106.918 57.2233 105.822 57.2233ZM104.773 54.6756C104.773 55.4013 105.372 55.8587 106.287 55.8587C107.486 55.8587 108.393 55.0463 108.393 53.9657V53.3189L106.366 53.4451C105.341 53.5082 104.773 53.9578 104.773 54.6598V54.6756Z" fill="#3FA34B"/>
<path d="M94.4713 57.0736V45.6917H96.1751V50.1403H96.2145C96.6562 49.178 97.5475 48.618 98.7859 48.618C100.561 48.618 101.728 49.9431 101.728 51.9466V57.0736H100.024V52.27C100.024 50.8976 99.3302 50.0772 98.1312 50.0772C96.9559 50.0772 96.1751 50.9764 96.1751 52.27V57.0736H94.4713Z" fill="#3FA34B"/>
<path d="M85.0535 57.0736V45.6917H89.2892C91.5214 45.6917 93.0674 47.1903 93.0674 49.4225V49.4383C93.0674 51.6627 91.5214 53.185 89.2892 53.185H86.8203V57.0736H85.0535ZM88.8475 47.1824H86.8203V51.7021H88.8475C90.3856 51.7021 91.269 50.8739 91.269 49.4462V49.4304C91.269 48.0106 90.3856 47.1824 88.8475 47.1824Z" fill="#3FA34B"/>
<path d="M77.6547 45.2419V45.2104C78.0727 44.9028 78.3015 44.603 78.3015 44.3349C78.3015 44.0193 77.9229 43.8221 77.426 43.8221C77.1814 43.8221 77.0237 43.8458 76.929 43.8695V42.9782C77.1262 42.8993 77.4575 42.8362 77.8282 42.8362C78.7038 42.8362 79.4373 43.3094 79.4373 44.0588C79.4373 44.5163 79.2165 44.9185 78.7117 45.2419H77.6547ZM73.7266 47.8607L75.5566 45.4628H77.071L78.9088 47.8607H77.5443L76.3059 46.2437L75.0912 47.8607H73.7266ZM76.3138 57.2392C73.9317 57.2392 72.3778 55.5906 72.3778 52.9246V52.9088C72.3778 50.2585 73.9475 48.6179 76.3059 48.6179C78.6722 48.6179 80.2498 50.2506 80.2498 52.9088V52.9246C80.2498 55.5985 78.688 57.2392 76.3138 57.2392ZM76.3217 55.8115C77.6547 55.8115 78.5066 54.7545 78.5066 52.9246V52.9088C78.5066 51.0946 77.6389 50.0456 76.3059 50.0456C74.9965 50.0456 74.121 51.0946 74.121 52.9088V52.9246C74.121 54.7624 74.9886 55.8115 76.3217 55.8115Z" fill="#3FA34B"/>
<path d="M66.5882 57.2628C63.3621 57.2628 61.3113 54.9911 61.3113 51.3786V51.3707C61.3113 47.7581 63.3621 45.5022 66.5882 45.5022C69.0965 45.5022 70.9816 47.0482 71.3366 49.2962L71.3524 49.3672H69.6013L69.554 49.2094C69.1753 47.8764 68.1184 47.064 66.5882 47.064C64.4743 47.064 63.1176 48.7362 63.1176 51.3707V51.3786C63.1176 54.0131 64.4821 55.701 66.5882 55.701C68.1026 55.701 69.1517 54.9123 69.5776 53.4688L69.6013 53.3978H71.3524L71.3445 53.4767C70.9895 55.7405 69.1044 57.2628 66.5882 57.2628Z" fill="#3FA34B"/>
<path d="M51.0415 59.8421C50.7103 59.8421 50.3553 59.8027 50.1502 59.7632V58.4302C50.2843 58.4618 50.4815 58.4933 50.7103 58.4933C51.5148 58.4933 51.9565 58.2804 52.2405 57.4758L52.3825 57.0814L49.3615 48.7756H51.2072L53.2974 55.5275H53.3526L55.4429 48.7756H57.2413L54.1493 57.46C53.5341 59.1796 52.6664 59.8421 51.0415 59.8421Z" fill="#3FA34B"/>
<path d="M45.1415 57.0736V47.214H41.6552V45.6917H50.3869V47.214H46.9084V57.0736H45.1415Z" fill="#3FA34B"/>
<path d="M33.3335 59.9999C31.2038 59.9999 29.855 59.0139 29.6026 57.744L29.5947 57.673H31.2827L31.3142 57.7361C31.543 58.2646 32.2608 58.6275 33.3256 58.6275C34.6823 58.6275 35.4316 57.9018 35.4316 56.7423V55.6065H35.3922C34.9189 56.5057 33.9724 57.0815 32.7814 57.0815C30.699 57.0815 29.3265 55.4487 29.3265 52.8615V52.8536C29.3265 50.2507 30.7148 48.6179 32.8208 48.6179C33.9882 48.6179 34.9032 49.2489 35.3922 50.1876H35.4316V48.7757H37.1433V56.8448C37.1433 58.7379 35.6762 59.9999 33.3335 59.9999ZM33.2625 55.6932C34.564 55.6932 35.4316 54.5968 35.4316 52.8852V52.8773C35.4316 51.1735 34.5561 50.0772 33.2625 50.0772C31.9137 50.0772 31.0697 51.1657 31.0697 52.8773V52.8852C31.0697 54.6205 31.9137 55.6932 33.2625 55.6932Z" fill="#3FA34B"/>
<path d="M20.8947 57.0736V48.7757H22.5984V50.0298H22.6378C23.0717 49.1858 23.9235 48.6179 25.1777 48.6179C26.9998 48.6179 28.0488 49.7932 28.0488 51.702V57.0736H26.3372V52.0254C26.3372 50.7792 25.7535 50.0772 24.5703 50.0772C23.3714 50.0772 22.5984 50.9448 22.5984 52.2384V57.0736H20.8947Z" fill="#3FA34B"/>
<path d="M13.0858 47.8369L14.8842 45.3523H16.3986L18.2049 47.8369H16.8482L15.6335 46.1963L14.4425 47.8369H13.0858ZM15.6414 57.2391C13.2593 57.2391 11.7054 55.5906 11.7054 52.9245V52.9087C11.7054 50.2585 13.2751 48.6178 15.6335 48.6178C17.9999 48.6178 19.5774 50.2506 19.5774 52.9087V52.9245C19.5774 55.5985 18.0156 57.2391 15.6414 57.2391ZM15.6493 55.8114C16.9823 55.8114 17.8342 54.7545 17.8342 52.9245V52.9087C17.8342 51.0946 16.9666 50.0455 15.6335 50.0455C14.3242 50.0455 13.4486 51.0946 13.4486 52.9087V52.9245C13.4486 54.7624 14.3163 55.8114 15.6493 55.8114Z" fill="#3FA34B"/>
<path d="M5.91581 57.2628C2.68973 57.2628 0.638916 54.9911 0.638916 51.3786V51.3707C0.638916 47.7581 2.68973 45.5022 5.91581 45.5022C8.42411 45.5022 10.3093 47.0482 10.6642 49.2962L10.68 49.3672H8.92892L8.8816 49.2094C8.50298 47.8764 7.44603 47.064 5.91581 47.064C3.8019 47.064 2.44521 48.7362 2.44521 51.3707V51.3786C2.44521 54.0131 3.80978 55.701 5.91581 55.701C7.43025 55.701 8.47932 54.9123 8.90526 53.4688L8.92892 53.3978H10.68L10.6721 53.4767C10.3172 55.7405 8.43199 57.2628 5.91581 57.2628Z" fill="#3FA34B"/>
</svg>
