<svg width="20" height="20" viewBox="0 0 20 20" fill="none" xmlns="http://www.w3.org/2000/svg">
<path d="M6.75023 1.95H4.59023C3.24611 1.95 2.57354 1.95 2.06016 2.21158C1.60857 2.44168 1.24168 2.80857 1.01158 3.26016C0.75 3.77354 0.75 4.44611 0.75 5.79023V14.9102C0.75 16.2544 0.75 16.9261 1.01158 17.4395C1.24168 17.891 1.60857 18.2586 2.06016 18.4887C2.57304 18.75 3.24479 18.75 4.58629 18.75H13.7137C15.0552 18.75 15.726 18.75 16.2389 18.4887C16.6905 18.2586 17.0586 17.8907 17.2887 17.4391C17.55 16.9262 17.55 16.2552 17.55 14.9137V12.75M18.75 6.75V0.75M18.75 0.75H12.75M18.75 0.75L10.35 9.15" stroke="white" stroke-width="1.5" stroke-linecap="round" stroke-linejoin="round"/>
</svg>
