<svg width="22" height="24" viewBox="0 0 22 24" fill="none" xmlns="http://www.w3.org/2000/svg">
<path d="M11 17.5565H12.6667M9.33335 19.2232H11M11 15.8898H9.33335M11.0001 8.11199V22.5564M11.0001 8.11199C10.2233 8.11199 9.48319 7.78045 8.96608 7.20074C8.44897 6.62103 8.2038 5.84821 8.29215 5.07642L8.53882 2.92198C8.63536 2.08063 9.34751 1.44544 10.1944 1.44531H11.8055C12.6524 1.44544 13.3645 2.08063 13.461 2.92198L13.7077 5.07642C13.7961 5.84821 13.5509 6.62103 13.0338 7.20074C12.5167 7.78045 11.7769 8.11199 11.0001 8.11199ZM11 14.2232H12.6667M11 12.5565H9.33335M11 10.8898H12.6667M8.62556 2.5565H5.44444C2.98985 2.5565 1 4.54635 1 7.00095V18.1121C1 20.5667 2.98985 22.5565 5.44444 22.5565H16.5556C19.0102 22.5565 21 20.5667 21 18.1121V7.00095C21 4.54635 19.0102 2.5565 16.5556 2.5565H13.3756" stroke="#6C757D" stroke-width="1.5" stroke-linecap="round" stroke-linejoin="round"/>
</svg>
