<svg width="17" height="20" viewBox="0 0 17 20" fill="none" xmlns="http://www.w3.org/2000/svg">
<path d="M9.75293 0C10.0101 0.000247213 10.208 0.210125 10.208 0.459961V3.67969C10.208 5.50962 11.7029 7.00942 13.5146 7.01953C14.2669 7.01953 14.861 7.03027 15.3164 7.03027C15.6233 7.03027 16.1289 7.01953 16.5547 7.01953C16.802 7.01966 16.9999 7.21993 17 7.46973V15.5098C17 17.9897 15.01 19.9999 12.5547 20H4.67285C2.0988 19.9998 2.1043e-05 17.8899 0 15.29V4.50977C0.000126126 2.02987 2.00055 0 4.46582 0H9.75293ZM5.42578 12.9004C5.01996 12.9004 4.68379 13.2298 4.68359 13.6396C4.68359 14.0496 5.01984 14.3896 5.42578 14.3896H10.8115C11.2175 14.3896 11.5547 14.0496 11.5547 13.6396C11.5545 13.2298 11.2173 12.9004 10.8115 12.9004H5.42578ZM5.42578 7.90039C5.01984 7.90039 4.68359 8.24039 4.68359 8.65039C4.68381 9.06021 5.01997 9.38965 5.42578 9.38965H8.77246C9.17819 9.38955 9.51443 9.06015 9.51465 8.65039C9.51465 8.24045 9.17832 7.90049 8.77246 7.90039H5.42578ZM11.6504 0.90625C11.6504 0.47525 12.1688 0.261266 12.4648 0.572266C13.5352 1.69631 15.4057 3.66088 16.4512 4.75879C16.74 5.06175 16.5279 5.56522 16.1113 5.56641C15.2975 5.56941 14.3376 5.56559 13.6475 5.55859C12.5525 5.55845 11.6504 4.6479 11.6504 3.54199V0.90625Z" fill="white"/>
</svg>
