<svg width="20" height="15" viewBox="0 0 20 15" fill="none" xmlns="http://www.w3.org/2000/svg">
<path d="M14.5373 6.96246C15.8668 6.96246 16.9445 5.88467 16.9445 4.55516C16.9445 3.22565 15.8668 2.14787 14.5373 2.14787M17.1737 12.4545L17.4096 12.4882C18.1171 12.5893 18.75 12.0403 18.75 11.3257V10.534C18.75 10.0162 18.4245 9.55434 17.9369 9.38019C17.4505 9.20647 16.9541 9.07119 16.4521 8.97435M4.96277 6.96246C3.63326 6.96246 2.55547 5.88467 2.55547 4.55516C2.55547 3.22565 3.63326 2.14787 4.96277 2.14787M2.32625 12.4545L2.09039 12.4882C1.38294 12.5893 0.75 12.0403 0.75 11.3257V10.534C0.75 10.0162 1.0755 9.55434 1.56312 9.38019C2.04952 9.20647 2.54591 9.07119 3.04787 8.97435M6.87766 3.81383C6.87766 5.50594 8.24938 6.87766 9.94148 6.87766C11.6336 6.87766 13.0053 5.50594 13.0053 3.81383C13.0053 2.12172 11.6336 0.75 9.94148 0.75C8.24938 0.75 6.87766 2.12172 6.87766 3.81383ZM13.297 13.8678L13.5972 13.9107C14.4976 14.0393 15.3032 13.3406 15.3032 12.4311V11.4235C15.3032 10.7645 14.8889 10.1766 14.2683 9.95499C11.4703 8.9557 8.41267 8.9557 5.61467 9.95499C4.99406 10.1766 4.57979 10.7645 4.57979 11.4235V12.4311C4.57979 13.3406 5.38535 14.0393 6.28574 13.9107L6.58593 13.8678C8.81167 13.5498 11.0713 13.5498 13.297 13.8678Z" stroke="white" stroke-width="1.5" stroke-linecap="round"/>
</svg>
