<svg width="16" height="16" viewBox="0 0 16 16" fill="none" xmlns="http://www.w3.org/2000/svg">
<path fill-rule="evenodd" clip-rule="evenodd" d="M3.5 8.08325C3.5 8.49747 3.16421 8.83325 2.75 8.83325C2.33579 8.83325 2 8.49747 2 8.08325C2 7.66904 2.33579 7.33325 2.75 7.33325C3.16421 7.33325 3.5 7.66904 3.5 8.08325Z" fill="#6C757D"/>
<path d="M3.5 8.08325C3.5 8.49747 3.16421 8.83325 2.75 8.83325C2.33579 8.83325 2 8.49747 2 8.08325C2 7.66904 2.33579 7.33325 2.75 7.33325C3.16421 7.33325 3.5 7.66904 3.5 8.08325" stroke="#6C757D" stroke-width="1.5" stroke-linecap="round" stroke-linejoin="round"/>
<path fill-rule="evenodd" clip-rule="evenodd" d="M8.75 8.08325C8.75 8.49747 8.41421 8.83325 8 8.83325C7.58579 8.83325 7.25 8.49747 7.25 8.08325C7.25 7.66904 7.58579 7.33325 8 7.33325C8.41421 7.33325 8.75 7.66904 8.75 8.08325Z" fill="#6C757D"/>
<path d="M8.75 8.08325C8.75 8.49747 8.41421 8.83325 8 8.83325C7.58579 8.83325 7.25 8.49747 7.25 8.08325C7.25 7.66904 7.58579 7.33325 8 7.33325C8.41421 7.33325 8.75 7.66904 8.75 8.08325" stroke="#6C757D" stroke-width="1.5" stroke-linecap="round" stroke-linejoin="round"/>
<path fill-rule="evenodd" clip-rule="evenodd" d="M14 8.08325C14 8.49747 13.6642 8.83325 13.25 8.83325C12.8358 8.83325 12.5 8.49747 12.5 8.08325C12.5 7.66904 12.8358 7.33325 13.25 7.33325C13.6642 7.33325 14 7.66904 14 8.08325Z" fill="#6C757D"/>
<path d="M14 8.08325C14 8.49747 13.6642 8.83325 13.25 8.83325C12.8358 8.83325 12.5 8.49747 12.5 8.08325C12.5 7.66904 12.8358 7.33325 13.25 7.33325C13.6642 7.33325 14 7.66904 14 8.08325" stroke="#6C757D" stroke-width="1.5" stroke-linecap="round" stroke-linejoin="round"/>
</svg>
