<svg width="20" height="21" viewBox="0 0 20 21" fill="none" xmlns="http://www.w3.org/2000/svg">
<path d="M9.99999 11.3333C10.4602 11.3333 10.8333 10.9602 10.8333 10.5C10.8333 10.0398 10.4602 9.66666 9.99999 9.66666C9.53975 9.66666 9.16666 10.0398 9.16666 10.5C9.16666 10.9602 9.53975 11.3333 9.99999 11.3333Z" fill="#CED4DA" stroke="#CED4DA" stroke-width="2" stroke-linecap="round" stroke-linejoin="round"/>
<path d="M9.99999 5.50001C10.4602 5.50001 10.8333 5.12691 10.8333 4.66668C10.8333 4.20644 10.4602 3.83334 9.99999 3.83334C9.53975 3.83334 9.16666 4.20644 9.16666 4.66668C9.16666 5.12691 9.53975 5.50001 9.99999 5.50001Z" fill="#CED4DA" stroke="#CED4DA" stroke-width="2" stroke-linecap="round" stroke-linejoin="round"/>
<path d="M9.99999 17.1667C10.4602 17.1667 10.8333 16.7936 10.8333 16.3333C10.8333 15.8731 10.4602 15.5 9.99999 15.5C9.53975 15.5 9.16666 15.8731 9.16666 16.3333C9.16666 16.7936 9.53975 17.1667 9.99999 17.1667Z" fill="#CED4DA" stroke="#CED4DA" stroke-width="2" stroke-linecap="round" stroke-linejoin="round"/>
</svg>
