<svg width="25" height="26" viewBox="0 0 25 26" fill="none" xmlns="http://www.w3.org/2000/svg">
<path d="M18.3663 9.46435L17.6182 9.41033L17.6182 9.41046L18.3663 9.46435ZM13.0628 9.46435L13.8109 9.41139L13.8109 9.41131L13.0628 9.46435ZM9.94736 18.7619L10.6751 18.9434L10.6751 18.9432L9.94736 18.7619ZM21.4821 18.7619L20.7536 18.9405L20.7537 18.941L21.4821 18.7619ZM10.2503 10.1851L9.50224 10.1312L9.50224 10.1313L10.2503 10.1851ZM5.99143 10.1851L5.2433 10.2381L5.2433 10.2381L5.99143 10.1851ZM10.179 15.6908C10.5555 15.8633 11.0007 15.6979 11.1732 15.3213C11.3457 14.9447 11.1803 14.4996 10.8038 14.3271L10.179 15.6908ZM3.51446 17.6104L2.78672 17.4291L2.78646 17.4301L3.51446 17.6104ZM8.40211 18.8928C8.81633 18.8928 9.15211 18.557 9.15211 18.1428C9.15211 17.7286 8.81633 17.3928 8.40211 17.3928V18.8928ZM17.6182 9.41046C17.5214 10.7538 16.5488 11.6072 15.7145 11.6072V13.1072C17.5239 13.1072 18.9757 11.443 19.1143 9.51824L17.6182 9.41046ZM15.7145 11.6072C14.8795 11.6072 13.9059 10.7534 13.8109 9.41139L12.3146 9.51732C12.4511 11.4442 13.9059 13.1072 15.7145 13.1072V11.6072ZM13.8109 9.41131C13.7642 8.75271 13.9687 8.23972 14.2934 7.89353C14.62 7.54531 15.1096 7.32153 15.7145 7.32153V5.82153C14.7272 5.82153 13.8307 6.1942 13.1993 6.86741C12.566 7.54264 12.2408 8.47606 12.3146 9.5174L13.8109 9.41131ZM15.7145 7.32153C16.8716 7.32153 17.7074 8.17602 17.6182 9.41033L19.1143 9.51838C19.2662 7.41469 17.7419 5.82153 15.7145 5.82153V7.32153ZM15.7145 14.1786C12.8988 14.1786 9.96455 15.5895 9.21959 18.5807L10.6751 18.9432C11.1918 16.8688 13.2934 15.6786 15.7145 15.6786V14.1786ZM9.21965 18.5805C9.04398 19.2848 9.48426 20.1785 10.4182 20.1785V18.6785C10.4553 18.6785 10.501 18.6882 10.5458 18.7125C10.5892 18.7361 10.621 18.7675 10.6419 18.7981C10.6825 18.8577 10.6828 18.9123 10.6751 18.9434L9.21965 18.5805ZM10.4182 20.1785H21.0112V18.6785H10.4182V20.1785ZM21.0112 20.1785C21.9477 20.1785 22.3824 19.2826 22.2104 18.5829L20.7537 18.941C20.7465 18.9114 20.7464 18.8579 20.7868 18.7987C20.8076 18.7681 20.8394 18.7365 20.8831 18.7127C20.9282 18.6882 20.9741 18.6785 21.0112 18.6785V20.1785ZM22.2105 18.5834C21.4655 15.5443 18.5236 14.1786 15.7145 14.1786V15.6786C18.143 15.6786 20.237 16.8328 20.7536 18.9405L22.2105 18.5834ZM9.50224 10.1313C9.42885 11.1499 8.68544 11.7679 8.12087 11.7679V13.2679C9.66805 13.2679 10.8837 11.8304 10.9984 10.239L9.50224 10.1313ZM8.12087 11.7679C7.55553 11.7679 6.81158 11.1495 6.73956 10.1322L5.2433 10.2381C5.3561 11.8315 6.57445 13.2679 8.12087 13.2679V11.7679ZM6.73956 10.1322C6.67439 9.21088 7.28157 8.60723 8.12087 8.60723V7.10723C6.41609 7.10723 5.11642 8.44418 5.2433 10.2381L6.73956 10.1322ZM8.12087 8.60723C8.95523 8.60723 9.56713 9.23062 9.50224 10.1312L10.9984 10.239C11.1255 8.47426 9.83058 7.10723 8.12087 7.10723V8.60723ZM10.8038 14.3271C9.9534 13.9375 9.04076 13.7989 8.12087 13.7989V15.2989C8.89407 15.2989 9.57891 15.4158 10.179 15.6908L10.8038 14.3271ZM8.12087 13.7989C5.83449 13.7989 3.40521 14.9477 2.78672 17.4291L4.24219 17.7918C4.63217 16.2273 6.22872 15.2989 8.12087 15.2989V13.7989ZM2.78646 17.4301C2.62889 18.0661 3.02647 18.8928 3.89092 18.8928V17.3928C4.01485 17.3928 4.13023 17.4604 4.19411 17.554C4.25161 17.6382 4.2585 17.726 4.24245 17.7908L2.78646 17.4301ZM3.89092 18.8928H8.40211V17.3928H3.89092V18.8928Z" fill="#ADB5BD"/>
</svg>
