<svg width="116" height="115" viewBox="0 0 116 115" fill="none" xmlns="http://www.w3.org/2000/svg">
<rect x="9" y="8.5" width="99" height="99" rx="49.5" stroke="#E88B3B" stroke-dasharray="1 1"/>
<path opacity="0.5" d="M108 58C108 85.615 85.615 108 58 108C30.385 108 8 85.615 8 58C8 30.385 30.385 8 58 8C85.615 8 108 30.385 108 58Z" fill="#FDE3CC"/>
<path d="M82.034 93.055C74.963 97.9172 66.5804 100.514 57.999 100.5C49.4176 100.514 41.035 97.9172 33.964 93.055C30.944 90.98 29.654 87.03 31.414 83.815C35.049 77.15 42.549 73 57.999 73C73.449 73 80.949 77.15 84.589 83.815C86.339 87.03 85.054 90.98 82.034 93.055ZM57.999 58C61.9772 58 65.7926 56.4196 68.6056 53.6066C71.4187 50.7936 72.999 46.9782 72.999 43C72.999 39.0218 71.4187 35.2064 68.6056 32.3934C65.7926 29.5804 61.9772 28 57.999 28C54.0208 28 50.2054 29.5804 47.3924 32.3934C44.5794 35.2064 42.999 39.0218 42.999 43C42.999 46.9782 44.5794 50.7936 47.3924 53.6066C50.2054 56.4196 54.0208 58 57.999 58Z" fill="#E88B3B"/>
<circle cx="58" cy="57.5" r="56" stroke="#FDE3CC" stroke-width="3"/>
</svg>
