<svg width="20" height="20" viewBox="0 0 20 20" fill="none" xmlns="http://www.w3.org/2000/svg">
<path d="M8.77785 3.69876C8.77785 3.14456 8.32684 2.68882 7.77695 2.75792C6.54386 2.91287 5.35874 3.35269 4.31782 4.04822C2.99764 4.93033 1.9687 6.18411 1.36109 7.65101C0.753478 9.1179 0.5945 10.732 0.904256 12.2893C1.21401 13.8465 1.97859 15.277 3.1013 16.3997C4.22402 17.5224 5.65444 18.287 7.21169 18.5967C8.76894 18.9065 10.3831 18.7475 11.85 18.1399C13.3169 17.5323 14.5706 16.5033 15.4528 15.1832C16.1483 14.1422 16.5881 12.9571 16.7431 11.724C16.8122 11.1741 16.3564 10.7231 15.8022 10.7231H10.2831C9.45176 10.7231 8.77785 10.0492 8.77785 9.21791V3.69876Z" stroke="#ADB5BD" stroke-width="1.5"/>
<path d="M11.7883 1.6918C11.7883 1.1376 12.2398 0.680975 12.7884 0.759879C13.3669 0.84309 13.934 0.998362 14.4764 1.22302C15.3286 1.57603 16.103 2.09344 16.7553 2.74571C17.4075 3.39798 17.9249 4.17234 18.278 5.02458C18.5026 5.56696 18.6579 6.13411 18.7411 6.71261C18.82 7.26117 18.3634 7.71269 17.8092 7.71269L12.7918 7.71269C12.2376 7.71269 11.7883 7.26341 11.7883 6.70921V1.6918Z" stroke="#ADB5BD" stroke-width="1.5"/>
</svg>
