<svg width="12" height="12" viewBox="0 0 12 12" fill="none" xmlns="http://www.w3.org/2000/svg">
<path fill-rule="evenodd" clip-rule="evenodd" d="M-0.00439453 6C-0.00439453 2.6862 2.68181 0 5.99561 0C9.30941 0 11.9956 2.6862 11.9956 6C11.9956 9.3138 9.30941 12 5.99561 12C2.68181 12 -0.00439453 9.3138 -0.00439453 6ZM6.59561 3C6.59561 2.84087 6.53239 2.68826 6.41987 2.57574C6.30735 2.46321 6.15474 2.4 5.99561 2.4C5.83648 2.4 5.68386 2.46321 5.57134 2.57574C5.45882 2.68826 5.39561 2.84087 5.39561 3V5.2584C5.39562 5.59263 5.48869 5.92026 5.66439 6.20458C5.84009 6.4889 6.09148 6.71869 6.39041 6.8682L8.12741 7.7364C8.19813 7.77454 8.2758 7.79808 8.3558 7.80564C8.43579 7.81319 8.51649 7.8046 8.59311 7.78037C8.66972 7.75614 8.74069 7.71677 8.8018 7.66459C8.86291 7.61241 8.91291 7.54849 8.94885 7.47662C8.98478 7.40475 9.00591 7.32639 9.01099 7.2462C9.01607 7.16601 9.00498 7.08561 8.9784 7.00978C8.95181 6.93395 8.91027 6.86424 8.85623 6.80477C8.80219 6.7453 8.73675 6.6973 8.66381 6.6636L6.92741 5.7948C6.82776 5.74501 6.74394 5.66845 6.68534 5.57372C6.62674 5.47898 6.59567 5.3698 6.59561 5.2584V3Z" fill="#B45309"/>
</svg>
