<svg width="15" height="15" viewBox="0 0 15 15" fill="none" xmlns="http://www.w3.org/2000/svg">
<path d="M3.25781 13.8564C3.12207 13.8206 2.99239 13.782 2.87012 13.7402C2.99238 13.782 3.12215 13.8205 3.25781 13.8564ZM3.25781 13.8564V13.8555C3.36814 13.8847 3.48297 13.9109 3.60156 13.9365C3.48304 13.911 3.36808 13.8856 3.25781 13.8564ZM1.97168 13.2793L1.87402 13.1943C1.84976 13.1716 1.82686 13.147 1.80371 13.1221C1.8541 13.1764 1.90951 13.2294 1.97168 13.2793ZM1.97168 13.2793C2.03056 13.3266 2.0952 13.3708 2.16406 13.4141C2.09537 13.3709 2.03038 13.3274 1.97168 13.2803V13.2793ZM1.61621 12.8623C1.61741 12.8646 1.61889 12.8668 1.62012 12.8691C1.64097 12.9088 1.66494 12.9458 1.68945 12.9814C1.66261 12.9426 1.63747 12.9033 1.61621 12.8623ZM1.61621 12.8623C1.59536 12.8221 1.57785 12.7806 1.5625 12.7383C1.57719 12.7787 1.59453 12.8203 1.61621 12.8623ZM1.97168 11.2354C2.00948 11.1875 2.04986 11.1403 2.0918 11.0928C2.04992 11.1403 2.00941 11.1875 1.97168 11.2354ZM1.97168 11.2354C1.93354 11.2836 1.89804 11.3324 1.86426 11.3809L1.76953 11.5254C1.79886 11.4769 1.83044 11.4284 1.86426 11.3799L1.97168 11.2354ZM12.1289 13.7393C12.0068 13.781 11.8776 13.8206 11.7422 13.8564C11.4707 13.9281 11.1735 13.9888 10.8545 14.0391C11.1733 13.9887 11.4701 13.9273 11.7412 13.8555C11.8771 13.8196 12.0065 13.781 12.1289 13.7393ZM13.0283 13.2803C12.9904 13.3107 12.9503 13.3404 12.9082 13.3691L12.7754 13.4521C12.8679 13.3978 12.9524 13.3403 13.0283 13.2793V13.2803ZM13.1738 13.1445C13.1584 13.1604 13.1434 13.1769 13.127 13.1924C13.1431 13.1772 13.1581 13.1607 13.1738 13.1445ZM13.3789 12.8691C13.3379 12.9467 13.2864 13.0199 13.2256 13.0898C13.2827 13.0241 13.3356 12.9515 13.3789 12.8691ZM1.55176 12.7031C1.54232 12.6739 1.53318 12.6445 1.52637 12.6143C1.53295 12.6433 1.54193 12.6727 1.55176 12.7031ZM13.4717 12.6182C13.4657 12.644 13.4581 12.6692 13.4502 12.6943C13.4584 12.6684 13.4659 12.6431 13.4717 12.6182ZM1.51465 12.5488C1.51192 12.5317 1.50874 12.5145 1.50684 12.4971C1.5087 12.514 1.51182 12.5312 1.51465 12.5488ZM13.4922 12.4971C13.4906 12.5116 13.4875 12.5257 13.4854 12.54C13.4876 12.5254 13.4906 12.5112 13.4922 12.4971ZM2.69238 10.5332C2.70481 10.5235 2.71788 10.5145 2.73047 10.5049C2.71787 10.5145 2.70481 10.5235 2.69238 10.5332ZM3.25684 10.1436C3.32476 10.1022 3.39473 10.0623 3.46582 10.0225L3.25781 10.1436C3.19007 10.1848 3.12403 10.2269 3.05957 10.2695C3.12364 10.2271 3.18852 10.1838 3.25586 10.1426L3.25684 10.1436ZM8.70898 9.08594C8.89222 9.11197 9.0723 9.14394 9.24902 9.18066C9.07228 9.14397 8.89222 9.11194 8.70898 9.08594ZM7.07422 6.71582C7.21511 6.73605 7.35703 6.75 7.5 6.75C7.35651 6.75 7.21461 6.73597 7.07422 6.71582ZM5.83398 6.24414C5.93554 6.31197 6.0421 6.37171 6.15137 6.42676C6.04242 6.37187 5.93583 6.31217 5.83398 6.24414ZM4.51465 4.04395C4.519 4.08815 4.5269 4.13185 4.5332 4.17578C4.52704 4.13286 4.51895 4.09015 4.51465 4.04688V4.04395ZM4.53711 3.30566C4.51507 3.45261 4.5 3.60073 4.5 3.75C4.5 3.60016 4.51515 3.45207 4.53711 3.30566ZM5.00586 2.08301C4.95126 2.1647 4.90087 2.24918 4.85449 2.33594L4.72852 2.60156C4.80311 2.42154 4.89532 2.24882 5.00391 2.08594L5.00586 2.08301ZM7.5 0.75C7.35708 0.75 7.21506 0.76299 7.07422 0.783203C7.21456 0.763063 7.35655 0.75 7.5 0.75ZM1.77832 13.0957C1.75489 13.069 1.73346 13.0414 1.71289 13.0137C1.73395 13.0422 1.75547 13.0697 1.77832 13.0957ZM13.4365 12.7363C13.4205 12.7806 13.4029 12.8242 13.3809 12.8662C13.4038 12.8223 13.4212 12.7786 13.4365 12.7363Z" fill="#6C757D" stroke="#212529" stroke-width="1.5"/>
</svg>
